{
	"asset":{
		"generator":"Khronos glTF Blender I/O v4.2.57",
		"version":"2.0"
	},
	"extensionsUsed":[
		"KHR_materials_specular",
		"KHR_materials_ior"
	],
	"scene":0,
	"scenes":[
		{
			"name":"Scene",
			"nodes":[
				0
			]
		}
	],
	"nodes":[
		{
			"mesh":0,
			"name":"M-04",
			"rotation":[
				0.7071068286895752,
				0,
				0,
				0.7071068286895752
			]
		}
	],
	"materials":[
		{
			"doubleSided":true,
			"extensions":{
				"KHR_materials_specular":{
					"specularColorFactor":[
						2.0,
						2.0,
						2.0
					]
				},
				"KHR_materials_ior":{
					"ior":1.4500000476837158
				}
			},
			"name":"material_0.002",
			"pbrMetallicRoughness":{
				"baseColorTexture":{
					"index":0
				},
				"metallicFactor":0
			}
		}
	],
	"meshes":[
		{
			"name":"M-04.001",
			"primitives":[
				{
					"attributes":{
						"POSITION":0,
						"NORMAL":1,
						"TEXCOORD_0":2
					},
					"indices":3,
					"material":0
				}
			]
		}
	],
	"textures":[
		{
			"sampler":0,
			"source":0
		}
	],
	"images":[
		{
			"mimeType":"image/jpeg",
			"name":"M-04",
			"uri":"M-04.jpg"
		}
	],
	"accessors":[
		{
			"bufferView":0,
			"componentType":5126,
			"count":25228,
			"max":[
				0.48409199714660645,
				1.6375889778137207,
				0.6294519901275635
			],
			"min":[
				-0.466949999332428,
				-0.9675269722938538,
				-0.5067309737205505
			],
			"type":"VEC3"
		},
		{
			"bufferView":1,
			"componentType":5126,
			"count":25228,
			"type":"VEC3"
		},
		{
			"bufferView":2,
			"componentType":5126,
			"count":25228,
			"type":"VEC2"
		},
		{
			"bufferView":3,
			"componentType":5123,
			"count":136161,
			"type":"SCALAR"
		}
	],
	"bufferViews":[
		{
			"buffer":0,
			"byteLength":302736,
			"byteOffset":0,
			"target":34962
		},
		{
			"buffer":0,
			"byteLength":302736,
			"byteOffset":302736,
			"target":34962
		},
		{
			"buffer":0,
			"byteLength":201824,
			"byteOffset":605472,
			"target":34962
		},
		{
			"buffer":0,
			"byteLength":272322,
			"byteOffset":807296,
			"target":34963
		}
	],
	"samplers":[
		{
			"magFilter":9729,
			"minFilter":9987
		}
	],
	"buffers":[
		{
			"byteLength":1079620,
			"uri":"M-04.bin"
		}
	]
}
