{
	"asset":{
		"generator":"Khronos glTF Blender I/O v4.2.57",
		"version":"2.0"
	},
	"extensionsUsed":[
		"KHR_materials_specular",
		"KHR_materials_ior"
	],
	"scene":0,
	"scenes":[
		{
			"name":"Scene",
			"nodes":[
				0
			]
		}
	],
	"nodes":[
		{
			"mesh":0,
			"name":"M-05",
			"rotation":[
				0.7071068286895752,
				0,
				0,
				0.7071068286895752
			]
		}
	],
	"materials":[
		{
			"doubleSided":true,
			"extensions":{
				"KHR_materials_specular":{
					"specularColorFactor":[
						2.0,
						2.0,
						2.0
					]
				},
				"KHR_materials_ior":{
					"ior":1.4500000476837158
				}
			},
			"name":"material_0.001",
			"pbrMetallicRoughness":{
				"baseColorTexture":{
					"index":0
				},
				"metallicFactor":0
			}
		}
	],
	"meshes":[
		{
			"name":"M-05",
			"primitives":[
				{
					"attributes":{
						"POSITION":0,
						"NORMAL":1,
						"TEXCOORD_0":2
					},
					"indices":3,
					"material":0
				}
			]
		}
	],
	"textures":[
		{
			"sampler":0,
			"source":0
		}
	],
	"images":[
		{
			"mimeType":"image/jpeg",
			"name":"M-05",
			"uri":"M-05.jpg"
		}
	],
	"accessors":[
		{
			"bufferView":0,
			"componentType":5126,
			"count":62865,
			"max":[
				0.37216299772262573,
				0.6040869951248169,
				0.7957850098609924
			],
			"min":[
				-0.2597090005874634,
				-0.37998899817466736,
				-0.849698007106781
			],
			"type":"VEC3"
		},
		{
			"bufferView":1,
			"componentType":5126,
			"count":62865,
			"type":"VEC3"
		},
		{
			"bufferView":2,
			"componentType":5126,
			"count":62865,
			"type":"VEC2"
		},
		{
			"bufferView":3,
			"componentType":5123,
			"count":345561,
			"type":"SCALAR"
		}
	],
	"bufferViews":[
		{
			"buffer":0,
			"byteLength":754380,
			"byteOffset":0,
			"target":34962
		},
		{
			"buffer":0,
			"byteLength":754380,
			"byteOffset":754380,
			"target":34962
		},
		{
			"buffer":0,
			"byteLength":502920,
			"byteOffset":1508760,
			"target":34962
		},
		{
			"buffer":0,
			"byteLength":691122,
			"byteOffset":2011680,
			"target":34963
		}
	],
	"samplers":[
		{
			"magFilter":9729,
			"minFilter":9987
		}
	],
	"buffers":[
		{
			"byteLength":2702804,
			"uri":"M-05.bin"
		}
	]
}
